<?xml version="1.0" encoding="UTF-8"?>
<svg version="1.1" xmlns="http://www.w3.org/2000/svg" width="601" height="625">
<path d="M0 0 C1.60819021 -0.00043649 3.21638035 -0.00131283 4.82457012 -0.00258917 C9.22805576 -0.00481882 13.63151696 -0.0008338 18.03499949 0.0041889 C22.78948694 0.0085152 27.54397305 0.00704542 32.29846191 0.00628662 C40.53075041 0.00576277 48.76303096 0.0088951 56.99531746 0.01452446 C68.8977608 0.02265822 80.80020031 0.02525661 92.70264613 0.02651245 C112.01448904 0.02870002 131.32632772 0.03535211 150.63816833 0.04481506 C169.3956551 0.05399681 188.15314071 0.06107392 206.91062927 0.06532288 C208.06721905 0.0655856 209.22380882 0.06584832 210.41544677 0.06611901 C216.2178307 0.06742406 222.02021463 0.06868777 227.82259858 0.06993091 C275.9443116 0.08029433 324.06602003 0.09790463 372.18772888 0.12025452 C372.18772888 3.12025452 372.18772888 3.12025452 370.8158946 4.57053524 C369.84773841 5.34889332 369.84773841 5.34889332 368.8600235 6.14297581 C363.41320657 10.71352859 358.44760679 15.72477809 353.43101501 20.75671387 C352.36012516 21.82716696 351.2890153 22.8974 350.2177062 23.96743351 C347.2919296 26.89098564 344.3692608 29.81762708 341.44711256 32.74480522 C338.28885008 35.90740154 335.12768224 39.06709153 331.96687317 42.22714233 C326.49672631 47.69676581 321.02840782 53.16821167 315.56134033 58.64091301 C307.65695507 66.55343849 299.74979743 74.46318872 291.84196872 82.37227262 C279.01092819 95.2054997 266.18212065 108.04095658 253.35472107 120.87782288 C240.89691099 133.34481732 228.43804707 145.81075706 215.97776794 158.27528381 C215.20922487 159.04408961 214.4406818 159.8128954 213.64884955 160.60499834 C209.79314146 164.4620115 205.93741268 168.31900398 202.08167362 172.17598617 C170.11381714 204.15420292 138.14958603 236.13604157 106.18772888 268.12025452 C111.38545779 274.41508101 117.07866897 280.14873892 122.85578918 285.90856934 C123.94187852 286.99509524 125.02774788 288.08184107 126.11341727 289.16878659 C129.0848331 292.14243065 132.05934479 295.11296072 135.03438592 298.08297718 C138.24675896 301.29102185 141.45623134 304.50196622 144.6660614 307.71255493 C150.22355433 313.27057158 155.78287166 318.82675795 161.34344101 324.3816967 C169.3830365 332.41315666 177.41986121 340.44738457 185.45601769 348.48228539 C198.49500319 361.51908361 211.53621916 374.55364823 224.57884216 387.58680725 C237.24668201 400.24546464 249.91346858 412.90517445 262.57884216 425.56629944 C263.35985866 426.34705322 264.14087516 427.12780699 264.94555883 427.93221997 C268.8637789 431.84913499 272.7819783 435.76607068 276.70016742 439.68301666 C309.19281633 472.16530302 341.68908704 504.64396418 374.18772888 537.12025452 C373.85772888 538.11025452 373.52772888 539.10025452 373.18772888 540.12025452 C323.30080556 540.10714001 273.41396198 540.06777174 223.52709032 539.99339889 C217.63190631 539.98463258 211.736722 539.9760827 205.84153748 539.96766663 C204.66795684 539.96598756 203.49437621 539.9643085 202.28523253 539.96257856 C183.30520003 539.9359391 164.32519774 539.92681566 145.34514846 539.92421309 C125.85682556 539.92114913 106.36858971 539.89915123 86.88030612 539.85972995 C74.86369333 539.83601465 62.84725452 539.82690942 50.83062159 539.83674141 C42.58029986 539.84207427 34.33013345 539.82894657 26.07985593 539.80159161 C21.32623786 539.78636645 16.57296758 539.77900279 11.81933975 539.7936573 C7.45485238 539.80693114 3.09103501 539.79667719 -1.27337779 539.76881679 C-2.84029996 539.7627698 -4.40728306 539.76487191 -5.97417282 539.77662525 C-27.04169325 539.92210758 -45.81146921 533.69799484 -61.27320862 518.89759827 C-75.57834396 503.24998099 -81.43531611 485.94746144 -81.3447113 464.92738342 C-81.35203198 463.21775333 -81.3610896 461.50812995 -81.37171853 459.79851723 C-81.39572683 455.13265588 -81.3951877 450.46707987 -81.39039469 445.8011713 C-81.38956341 440.7567504 -81.41173836 435.7124221 -81.43096924 430.66804504 C-81.46496994 420.79876474 -81.47784353 410.92956553 -81.48345904 401.06023264 C-81.49077233 389.5584245 -81.51888755 378.05669503 -81.54776384 366.55492425 C-81.59856806 346.02788461 -81.63019293 325.50086003 -81.65113831 304.97377014 C-81.6714603 285.07137947 -81.70580989 265.16907789 -81.75563049 245.26673889 C-81.7586974 244.04088837 -81.76176431 242.81503785 -81.76492415 241.55204034 C-81.76798655 240.32827494 -81.77104894 239.10450955 -81.77420413 237.84366035 C-81.83083923 215.16254662 -81.87409068 192.48142412 -81.91125097 169.80027068 C-81.92468554 161.78967508 -81.9421034 153.77909375 -81.96079636 145.76850891 C-81.98332846 136.00160955 -81.99816128 126.23473169 -82.00349645 116.46780729 C-82.00635964 111.48797479 -82.01235204 106.50820159 -82.02713966 101.52838898 C-82.04058105 96.96382661 -82.04454459 92.39935473 -82.04115023 87.83477473 C-82.04153031 86.1895817 -82.04525657 84.54438505 -82.05279778 82.89920926 C-82.14328409 62.08509261 -78.96386911 42.89411467 -65.81227112 26.12025452 C-64.65984924 24.64878967 -64.65984924 24.64878967 -63.48414612 23.14759827 C-60.85170395 20.01809375 -57.82754376 17.5024731 -54.56227112 15.05775452 C-53.98726868 14.62511292 -53.41226624 14.19247131 -52.81983948 13.74671936 C-36.63202108 1.74450804 -19.65733935 -0.03973502 0 0 Z " fill="#1FB5C4" transform="translate(164.81227111816406,42.87974548339844)"/>
<path d="M0 0 C3.80553962 2.1038312 6.70029569 4.45130869 9.76945972 7.52336407 C10.22433635 7.975933 10.67921297 8.42850193 11.14787373 8.89478508 C12.66991557 10.41153582 14.18472183 11.93530996 15.69966125 13.45915222 C16.80074675 14.55936547 17.90227169 15.65913907 19.00419778 16.75851041 C22.03022917 19.78006806 25.04998613 22.80782936 28.06876338 25.83663213 C31.32548467 29.10198519 34.58797845 32.36156174 37.84977722 35.62184143 C43.50004867 41.27106386 49.14664486 46.92393848 54.79076576 52.57930565 C62.95123551 60.75602505 71.11721809 68.92722044 79.28455951 77.09707538 C92.53517414 90.35206795 105.78131569 103.61152129 119.0246582 116.8737793 C131.88982873 129.75730606 144.75709682 142.63873192 157.62719727 155.51733398 C158.42042447 156.31108664 159.21365168 157.10483929 160.03091607 157.92264505 C164.01029145 161.90463049 167.98970815 165.88657462 171.96914542 169.86849821 C204.98584129 202.90592965 237.99528412 235.95060072 271 269 C270.67 269.99 270.34 270.98 270 272 C220.11307668 271.9868855 170.2262331 271.94751722 120.33936144 271.87314438 C114.44417742 271.86437807 108.54899312 271.85582818 102.65380859 271.84741211 C101.48022796 271.84573305 100.30664733 271.84405398 99.09750365 271.84232404 C80.11747115 271.81568458 61.13746885 271.80656115 42.15741958 271.80395857 C22.66909668 271.80089461 3.18086083 271.77889671 -16.30742276 271.73947543 C-28.32403555 271.71576013 -40.34047436 271.70665491 -52.3571073 271.71648689 C-60.60742902 271.72181975 -68.85759543 271.70869206 -77.10787295 271.6813371 C-81.86149102 271.66611194 -86.61476131 271.65874828 -91.36838913 271.67340279 C-95.7328765 271.68667662 -100.09669387 271.67642267 -104.46110667 271.64856227 C-106.02802884 271.64251529 -107.59501194 271.64461739 -109.1619017 271.65637074 C-125.78340335 271.77115096 -142.49884519 268.2275606 -156 258 C-157.81640625 255.375 -157.81640625 255.375 -159 253 C-160.00467317 250.91740881 -160.00467317 250.91740881 -161.40625 248.71484375 C-170.00001686 234.07595167 -173.43123936 216.33358946 -170.37890625 199.59375 C-167.85955598 190.54648324 -163.4813261 182.20974123 -159 174 C-158.48759766 173.06003174 -158.48759766 173.06003174 -157.96484375 172.10107422 C-151.98228605 161.29891798 -144.65819248 151.65909676 -137 142 C-136.26652344 141.06285156 -135.53304687 140.12570312 -134.77734375 139.16015625 C-124.21238847 125.77498704 -112.83456017 113.12182924 -101.24609375 100.62304688 C-98.6290144 97.79294944 -96.05152006 94.94448507 -93.5625 92 C-91.15236338 89.17837664 -88.63508525 86.61063796 -86 84 C-85.05134887 83.04784946 -84.10362496 82.09477439 -83.15673828 81.14086914 C-80.40654618 78.37283672 -77.65327561 75.60788912 -74.89892578 72.84399414 C-73.71898617 71.65902038 -72.53994491 70.47315138 -71.36181641 69.28637695 C-69.64206496 67.5543793 -67.91900009 65.82573566 -66.1953125 64.09765625 C-65.67840851 63.57559097 -65.16150452 63.0535257 -64.62893677 62.51564026 C-61.40112206 59.2873417 -58.0537568 56.26755893 -54.55567932 53.33387756 C-52.23880487 51.34733265 -50.12905962 49.18517437 -48 47 C-45.56674746 44.53744839 -43.12679708 42.08156208 -40.6875 39.625 C-40.06166016 38.99078125 -39.43582031 38.3565625 -38.79101562 37.703125 C-35.670665 34.56677257 -32.51433956 31.53775387 -29.15625 28.65625 C-24.12475841 24.31451526 -19.48673425 19.59454748 -14.8125 14.875 C-13.93658203 13.99457031 -13.06066406 13.11414063 -12.15820312 12.20703125 C-10.49066855 10.53064699 -8.82410036 8.85330067 -7.15869141 7.17480469 C-4.77862181 4.77696936 -2.39143891 2.38648769 0 0 Z " fill="#0279BA" transform="translate(268,311)"/>
<path d="M0 0 C4.97189228 2.5792364 8.5884372 6.24850025 12.5234375 10.15234375 C13.58179306 11.1971566 13.58179306 11.1971566 14.66152954 12.26307678 C16.14506236 13.73214379 17.6258353 15.20400247 19.10400391 16.6784668 C21.37600416 18.93849887 23.66599847 21.1792064 25.95703125 23.41992188 C27.39697746 24.85041174 28.83581906 26.28201454 30.2734375 27.71484375 C30.96287445 28.38474838 31.6523114 29.05465302 32.36264038 29.74485779 C32.98724152 30.37553665 33.61184265 31.00621552 34.25537109 31.65600586 C34.81098724 32.20655136 35.36660339 32.75709686 35.9390564 33.32432556 C37 35 37 35 36.78970337 37.11354065 C35.68760906 39.74624578 34.17807227 40.48628462 31.75 41.9375 C27.94520256 44.32684021 25.02737988 46.69740376 22 50 C20 52 20 52 17 52.375 C16.01 52.58125 15.02 52.7875 14 53 C12.81669817 54.86644906 12.81669817 54.86644906 12 57 C8.57142857 60 8.57142857 60 6 60 C6 60.66 6 61.32 6 62 C4.1590771 63.59665804 2.3288668 65.05423095 0.375 66.5 C-0.66914063 67.2940625 -1.71328125 68.088125 -2.7890625 68.90625 C-6 71 -6 71 -9.3359375 72.09375 C-10.21507812 72.3928125 -11.09421875 72.691875 -12 73 C-12.33 73.99 -12.66 74.98 -13 76 C-14.5234375 77.3515625 -14.5234375 77.3515625 -16.375 78.625 C-16.98085937 79.05039062 -17.58671875 79.47578125 -18.2109375 79.9140625 C-20 81 -20 81 -23 82 C-23.33 82.66 -23.66 83.32 -24 84 C-27.90296074 86.40182199 -31.6830511 88.4302004 -36 90 C-36 90.66 -36 91.32 -36 92 C-37.9489387 93.78652714 -39.90936345 95.3859056 -42 97 C-42.99 97.76828125 -43.98 98.5365625 -45 99.328125 C-53.70988217 106 -53.70988217 106 -56 106 C-56 106.66 -56 107.32 -56 108 C-56.66 108 -57.32 108 -58 108 C-58 108.66 -58 109.32 -58 110 C-59.79036458 110.9765625 -61.58072917 111.953125 -63.37109375 112.9296875 C-65.16618315 113.91410024 -65.16618315 113.91410024 -66 116 C-66.66 116 -67.32 116 -68 116 C-68 116.66 -68 117.32 -68 118 C-68.66 118 -69.32 118 -70 118 C-70 118.66 -70 119.32 -70 120 C-71.98 120.66 -73.96 121.32 -76 122 C-76 122.66 -76 123.32 -76 124 C-76.66 124 -77.32 124 -78 124 C-78.495 125.485 -78.495 125.485 -79 127 C-80.671875 128.2109375 -80.671875 128.2109375 -82.75 129.375 C-85.55788693 131.02964766 -87.40113092 132.40113092 -89.75 134.75 C-91.95798431 136.95798431 -92.95862085 137.66206898 -96 138 C-96 138.66 -96 139.32 -96 140 C-99.46153846 143 -99.46153846 143 -102 143 C-102 143.66 -102 144.32 -102 145 C-102.66 145 -103.32 145 -104 145 C-104.2475 145.61875 -104.495 146.2375 -104.75 146.875 C-106.20628639 149.35068687 -107.37812506 149.95125002 -110 151 C-110 151.66 -110 152.32 -110 153 C-111.32 153.33 -112.64 153.66 -114 154 C-114 154.66 -114 155.32 -114 156 C-114.66 156 -115.32 156 -116 156 C-116 156.66 -116 157.32 -116 158 C-121.47619048 163 -121.47619048 163 -124 163 C-124.2578125 163.57234375 -124.515625 164.1446875 -124.78125 164.734375 C-126.11365942 167.21128995 -127.65056118 169.1341166 -129.5 171.25 C-130.1084375 171.95640625 -130.716875 172.6628125 -131.34375 173.390625 C-133 175 -133 175 -135 175 C-135.0825 175.721875 -135.165 176.44375 -135.25 177.1875 C-136.15995961 180.59984855 -137.69302466 182.35376358 -140 185 C-140.53625 185.763125 -141.0725 186.52625 -141.625 187.3125 C-142.07875 187.869375 -142.5325 188.42625 -143 189 C-143.66 189 -144.32 189 -145 189 C-145.12761719 189.56460938 -145.25523437 190.12921875 -145.38671875 190.7109375 C-146.03007854 193.11226766 -146.87194995 195.32421222 -147.8125 197.625 C-148.16570312 198.49640625 -148.51890625 199.3678125 -148.8828125 200.265625 C-149.62760417 202.08854167 -150.37239583 203.91145833 -151.1171875 205.734375 C-151.47039062 206.60578125 -151.82359375 207.4771875 -152.1875 208.375 C-152.51105469 209.16648437 -152.83460938 209.95796875 -153.16796875 210.7734375 C-154.76802294 215.05527265 -155.12816747 218.71739052 -155.1328125 223.3046875 C-155.13410156 224.52800781 -155.13539063 225.75132812 -155.13671875 227.01171875 C-155.13285156 228.28660156 -155.12898438 229.56148437 -155.125 230.875 C-155.12886719 232.14214844 -155.13273437 233.40929687 -155.13671875 234.71484375 C-155.13542969 235.94074219 -155.13414062 237.16664063 -155.1328125 238.4296875 C-155.13168457 239.54585449 -155.13055664 240.66202148 -155.12939453 241.81201172 C-155.00187026 244.95392102 -154.58607711 247.9136376 -154 251 C-154.99 251.33 -155.98 251.66 -157 252 C-157 252.66 -157 253.32 -157 254 C-156.34 254.33 -155.68 254.66 -155 255 C-155.99 255 -156.98 255 -158 255 C-158.268125 254.443125 -158.53625 253.88625 -158.8125 253.3125 C-159.97897863 250.96782489 -159.97897863 250.96782489 -161.41796875 248.6953125 C-170.0059895 234.06386974 -173.42937498 216.32336465 -170.37890625 199.59375 C-167.85955598 190.54648324 -163.4813261 182.20974123 -159 174 C-158.48759766 173.06003174 -158.48759766 173.06003174 -157.96484375 172.10107422 C-151.98228605 161.29891798 -144.65819248 151.65909676 -137 142 C-136.26652344 141.06285156 -135.53304687 140.12570312 -134.77734375 139.16015625 C-124.21238847 125.77498704 -112.83456017 113.12182924 -101.24609375 100.62304688 C-98.6290144 97.79294944 -96.05152006 94.94448507 -93.5625 92 C-91.15236338 89.17837664 -88.63508525 86.61063796 -86 84 C-85.05134887 83.04784946 -84.10362496 82.09477439 -83.15673828 81.14086914 C-80.40654618 78.37283672 -77.65327561 75.60788912 -74.89892578 72.84399414 C-73.71898617 71.65902038 -72.53994491 70.47315138 -71.36181641 69.28637695 C-69.64206496 67.5543793 -67.91900009 65.82573566 -66.1953125 64.09765625 C-65.67840851 63.57559097 -65.16150452 63.0535257 -64.62893677 62.51564026 C-61.40112206 59.2873417 -58.0537568 56.26755893 -54.55567932 53.33387756 C-52.23880487 51.34733265 -50.12905962 49.18517437 -48 47 C-45.56674746 44.53744839 -43.12679708 42.08156208 -40.6875 39.625 C-40.06166016 38.99078125 -39.43582031 38.3565625 -38.79101562 37.703125 C-35.670665 34.56677257 -32.51433956 31.53775387 -29.15625 28.65625 C-24.12475841 24.31451526 -19.48673425 19.59454748 -14.8125 14.875 C-13.93658203 13.99457031 -13.06066406 13.11414063 -12.15820312 12.20703125 C-10.49066855 10.53064699 -8.82410036 8.85330067 -7.15869141 7.17480469 C-4.77862181 4.77696936 -2.39143891 2.38648769 0 0 Z " fill="#016293" transform="translate(268,311)"/>
<path d="M0 0 C1.60819021 -0.00043649 3.21638035 -0.00131283 4.82457012 -0.00258917 C9.22805576 -0.00481882 13.63151696 -0.0008338 18.03499949 0.0041889 C22.78948694 0.0085152 27.54397305 0.00704542 32.29846191 0.00628662 C40.53075041 0.00576277 48.76303096 0.0088951 56.99531746 0.01452446 C68.8977608 0.02265822 80.80020031 0.02525661 92.70264613 0.02651245 C112.01448904 0.02870002 131.32632772 0.03535211 150.63816833 0.04481506 C169.3956551 0.05399681 188.15314071 0.06107392 206.91062927 0.06532288 C208.06721905 0.0655856 209.22380882 0.06584832 210.41544677 0.06611901 C216.2178307 0.06742406 222.02021463 0.06868777 227.82259858 0.06993091 C275.9443116 0.08029433 324.06602003 0.09790463 372.18772888 0.12025452 C372.18772888 1.11025452 372.18772888 2.10025452 372.18772888 3.12025452 C370.65647888 4.50697327 370.65647888 4.50697327 368.68772888 5.80775452 C368.03804138 6.2447467 367.38835388 6.68173889 366.71897888 7.13197327 C365.96101013 7.62117249 365.96101013 7.62117249 365.18772888 8.12025452 C365.18772888 7.13025452 365.18772888 6.14025452 365.18772888 5.12025452 C364.52772888 5.12025452 363.86772888 5.12025452 363.18772888 5.12025452 C363.18772888 4.13025452 363.18772888 3.14025452 363.18772888 2.12025452 C235.14772888 2.12025452 107.10772888 2.12025452 -24.81227112 2.12025452 C-24.81227112 1.79025452 -24.81227112 1.46025452 -24.81227112 1.12025452 C-16.54526707 -0.03910695 -8.32889376 -0.01683589 0 0 Z " fill="#80CDD5" transform="translate(164.81227111816406,42.87974548339844)"/>
<path d="M0 0 C0.33 0 0.66 0 1 0 C1.33 2.97 1.66 5.94 2 9 C1.01 9.495 1.01 9.495 0 10 C0 149.59 0 289.18 0 433 C-2.83716833 430.16283167 -2.25659689 428.30283618 -2.26729965 424.32462597 C-2.27419253 423.27852651 -2.27419253 423.27852651 -2.28122467 422.21129373 C-2.29430259 419.85077662 -2.2930302 417.4904787 -2.29193115 415.12992859 C-2.29836033 413.42979672 -2.30565997 411.72966795 -2.31376004 410.02954322 C-2.33353092 405.33890361 -2.34075387 400.64831394 -2.34599233 395.95763862 C-2.35377403 390.90554849 -2.37299106 385.85350043 -2.39076233 380.80143738 C-2.42372907 370.8939062 -2.44584356 360.98637876 -2.46412745 351.07881071 C-2.47918415 343.02356129 -2.49810642 334.96832965 -2.51981354 326.91309547 C-2.52289536 325.7681203 -2.52597719 324.62314512 -2.52915241 323.44347373 C-2.53542911 321.11759328 -2.54171453 318.79171285 -2.54800859 316.46583245 C-2.60664728 294.62565439 -2.65300078 272.78546329 -2.69521323 250.94524816 C-2.73170483 232.21371107 -2.77872856 213.48222468 -2.83349609 194.75073242 C-2.89706432 173.00765424 -2.95400758 151.26457514 -3.0004847 129.5214532 C-3.0054642 127.20059476 -3.01045244 124.87973634 -3.01544952 122.55887794 C-3.01790508 121.41695553 -3.02036064 120.27503311 -3.02289061 119.09850698 C-3.04063185 111.06048255 -3.06309392 103.02247929 -3.08739471 94.98447227 C-3.11691877 85.17705449 -3.13916818 75.36965203 -3.15219894 65.56219795 C-3.15902675 60.56015953 -3.16905749 55.55818388 -3.18795204 50.55617523 C-3.20517935 45.97082657 -3.21291756 41.3855604 -3.21330455 36.80018029 C-3.21506551 35.14725312 -3.22019698 33.49432509 -3.2291691 31.84142133 C-3.28534823 21.03071191 -2.77639214 10.51649089 0 0 Z " fill="#63C3CF" transform="translate(86,94)"/>
<path d="M0 0 C0.66 0.33 1.32 0.66 2 1 C1.67 1.99 1.34 2.98 1 4 C-191.06 3.505 -191.06 3.505 -387 3 C-387 2.67 -387 2.34 -387 2 C-259.29 2 -131.58 2 0 2 C0 1.34 0 0.68 0 0 Z " fill="#A2C9DC" transform="translate(537,579)"/>
<path d="M0 0 C2.14953175 3.22429763 3.18562541 6.15047432 4.4375 9.8125 C6.00844096 14.40713296 7.74084747 18.6990478 10 23 C10.66 22.67 11.32 22.34 12 22 C12 23.98 12 25.96 12 28 C4.33764153 23.87411467 -2.19085413 16.23318817 -5 8 C-4.175 7.608125 -3.35 7.21625 -2.5 6.8125 C-1.675 6.214375 -0.85 5.61625 0 5 C0.41780879 2.37305578 0.41780879 2.37305578 0 0 Z " fill="#22B0C5" transform="translate(98,538)"/>
<path d="M0 0 C0 0.66 0 1.32 0 2 C0.99 2.33 1.98 2.66 3 3 C-1.29 7.29 -5.58 11.58 -10 16 C-10.66 15.01 -11.32 14.02 -12 13 C-11.125 10.3125 -11.125 10.3125 -10 8 C-8.35 8.33 -6.7 8.66 -5 9 C-5.061875 7.88625 -5.12375 6.7725 -5.1875 5.625 C-5.125625 4.42875 -5.06375 3.2325 -5 2 C-2 0 -2 0 0 0 Z " fill="#48BFC9" transform="translate(317,259)"/>
<path d="M0 0 C2.31 0.66 4.62 1.32 7 2 C2.88380164 6.91935902 -1.40410362 11.52647956 -6 16 C-6.66 15.01 -7.32 14.02 -8 13 C-7.01 13 -6.02 13 -5 13 C-5 11.35 -5 9.7 -5 8 C-3.68 8.33 -2.36 8.66 -1 9 C-1.20625 8.071875 -1.4125 7.14375 -1.625 6.1875 C-2 3 -2 3 0 0 Z " fill="#55C3CF" transform="translate(522,50)"/>
<path d="M0 0 C5.66129431 4.69766975 10.85228904 9.74723372 16 15 C15.34 15.66 14.68 16.32 14 17 C11 17 11 17 9 16 C8.375 12.9375 8.375 12.9375 8 10 C7.01 9.67 6.02 9.34 5 9 C5 8.34 5 7.68 5 7 C3.35 6.67 1.7 6.34 0 6 C0 4.02 0 2.04 0 0 Z " fill="#4295C0" transform="translate(388,430)"/>
<path d="M0 0 C1.32 0.33 2.64 0.66 4 1 C-0.95 5.95 -5.9 10.9 -11 16 C-11.66 14.68 -12.32 13.36 -13 12 C-12.34 11.34 -11.68 10.68 -11 10 C-9.68 10 -8.36 10 -7 10 C-6.67 8.02 -6.34 6.04 -6 4 C-4.02 3.67 -2.04 3.34 0 3 C0 2.01 0 1.02 0 0 Z " fill="#5DC4CF" transform="translate(340,237)"/>
<path d="M0 0 C1.9451 2.91765 2.45276317 4.62537285 3 8 C2.01 8 1.02 8 0 8 C0.66 11.3 1.32 14.6 2 18 C-1.39417765 14.87378374 -3.6062718 12.43458973 -5 8 C-4.175 7.608125 -3.35 7.21625 -2.5 6.8125 C-1.675 6.214375 -0.85 5.61625 0 5 C0.41780879 2.37305578 0.41780879 2.37305578 0 0 Z " fill="#3AB7CA" transform="translate(98,538)"/>
<path d="M0 0 C1.32 0.66 2.64 1.32 4 2 C2.35718838 3.66964521 0.71067239 5.3356464 -0.9375 7 C-2.31228516 8.3921875 -2.31228516 8.3921875 -3.71484375 9.8125 C-6 12 -6 12 -7 12 C-7 10.02 -7 8.04 -7 6 C-6.01 5.67 -5.02 5.34 -4 5 C-3.67 4.01 -3.34 3.02 -3 2 C-2.01 2.33 -1.02 2.66 0 3 C0 2.01 0 1.02 0 0 Z " fill="#50C1CE" transform="translate(508,68)"/>
<path d="M0 0 C0.99 0.495 0.99 0.495 2 1 C1.01 1.495 1.01 1.495 0 2 C0 1.34 0 0.68 0 0 Z M-2 2 C-1.34 2.33 -0.68 2.66 0 3 C-1.62339805 4.70884005 -3.29319053 6.37446717 -5 8 C-5.66 8 -6.32 8 -7 8 C-7.38865234 8.86044922 -7.38865234 8.86044922 -7.78515625 9.73828125 C-9.10190603 12.18972216 -10.60964713 14.09234822 -12.4375 16.1875 C-13.33275391 17.22970703 -13.33275391 17.22970703 -14.24609375 18.29296875 C-16 20 -16 20 -19 21 C-19 20.34 -19 19.68 -19 19 C-18.34 19 -17.68 19 -17 19 C-16.60554687 18.13181641 -16.60554687 18.13181641 -16.203125 17.24609375 C-12.90055663 11.08058462 -7.45164338 6.25494118 -2 2 Z " fill="#0471AB" transform="translate(152,467)"/>
<path d="M0 0 C4.91935902 4.11619836 9.52647956 8.40410362 14 13 C13.34 13.66 12.68 14.32 12 15 C11.1028125 13.7934375 11.1028125 13.7934375 10.1875 12.5625 C8.19052724 9.77672016 8.19052724 9.77672016 5 9 C5 8.34 5 7.68 5 7 C4.01 7 3.02 7 2 7 C2 6.01 2 5.02 2 4 C1.34 4 0.68 4 0 4 C0 2.68 0 1.36 0 0 Z " fill="#4596C1" transform="translate(372,414)"/>
<path d="M0 0 C4.91935902 4.11619836 9.52647956 8.40410362 14 13 C13.34 13.66 12.68 14.32 12 15 C11.1028125 13.7934375 11.1028125 13.7934375 10.1875 12.5625 C8.19052724 9.77672016 8.19052724 9.77672016 5 9 C5 8.34 5 7.68 5 7 C4.01 7 3.02 7 2 7 C2 6.01 2 5.02 2 4 C1.34 4 0.68 4 0 4 C0 2.68 0 1.36 0 0 Z " fill="#4596C1" transform="translate(356,398)"/>
<path d="M0 0 C4.91935902 4.11619836 9.52647956 8.40410362 14 13 C13.34 13.66 12.68 14.32 12 15 C11.1028125 13.7934375 11.1028125 13.7934375 10.1875 12.5625 C8.19052724 9.77672016 8.19052724 9.77672016 5 9 C5 8.34 5 7.68 5 7 C4.01 7 3.02 7 2 7 C2 6.01 2 5.02 2 4 C1.34 4 0.68 4 0 4 C0 2.68 0 1.36 0 0 Z " fill="#4596C1" transform="translate(340,382)"/>
<path d="M0 0 C4.91935902 4.11619836 9.52647956 8.40410362 14 13 C13.34 13.66 12.68 14.32 12 15 C11.1028125 13.7934375 11.1028125 13.7934375 10.1875 12.5625 C8.19052724 9.77672016 8.19052724 9.77672016 5 9 C5 8.34 5 7.68 5 7 C4.01 7 3.02 7 2 7 C2 6.01 2 5.02 2 4 C1.34 4 0.68 4 0 4 C0 2.68 0 1.36 0 0 Z " fill="#4596C1" transform="translate(324,366)"/>
<path d="M0 0 C2.875 0.25 2.875 0.25 6 1 C7.375 3.0625 7.375 3.0625 8 5 C8.66 4.67 9.32 4.34 10 4 C10 5.98 10 7.96 10 10 C5.83017971 7.44124664 2.82197589 5.01588876 0 1 C0 0.67 0 0.34 0 0 Z " fill="#67B9CD" transform="translate(100,556)"/>
<path d="M0 0 C-2.64 2.64 -5.28 5.28 -8 8 C-8.66 7.34 -9.32 6.68 -10 6 C-10 5.01 -10 4.02 -10 3 C-8.68 2.67 -7.36 2.34 -6 2 C-6 1.34 -6 0.68 -6 0 C-4 -1 -4 -1 0 0 Z " fill="#54C2CF" transform="translate(304,278)"/>
<path d="M0 0 C0.66 0.33 1.32 0.66 2 1 C0.4169423 5.2742558 -2.50568404 7.26531794 -6 10 C-6.33 9.01 -6.66 8.02 -7 7 C-7.66 6.34 -8.32 5.68 -9 5 C-8.01 4.67 -7.02 4.34 -6 4 C-5.67 4.33 -5.34 4.66 -5 5 C-4.67 4.34 -4.34 3.68 -4 3 C-3.01 2.34 -2.02 1.68 -1 1 C-0.67 0.67 -0.34 0.34 0 0 Z " fill="#52C1CC" transform="translate(404,173)"/>
<path d="M0 0 C0.66 0.33 1.32 0.66 2 1 C0.4169423 5.2742558 -2.50568404 7.26531794 -6 10 C-6.33 9.01 -6.66 8.02 -7 7 C-7.66 6.34 -8.32 5.68 -9 5 C-8.01 4.67 -7.02 4.34 -6 4 C-5.67 4.33 -5.34 4.66 -5 5 C-4.67 4.34 -4.34 3.68 -4 3 C-3.01 2.34 -2.02 1.68 -1 1 C-0.67 0.67 -0.34 0.34 0 0 Z " fill="#52C1CC" transform="translate(420,157)"/>
<path d="M0 0 C0.66 2.64 1.32 5.28 2 8 C-0.375 7.6875 -0.375 7.6875 -3 7 C-3.66 6.01 -4.32 5.02 -5 4 C-4.67 3.01 -4.34 2.02 -4 1 C-2 0 -2 0 0 0 Z " fill="#2B79A3" transform="translate(115,562)"/>
<path d="M0 0 C0 4.07211906 -1.5535064 5.1414603 -4.25 8.125 C-5.43335938 9.45917969 -5.43335938 9.45917969 -6.640625 10.8203125 C-8.90987032 12.9167345 -9.99179674 13.65502256 -13 14 C-8.88380164 9.08064098 -4.59589638 4.47352044 0 0 Z " fill="#05759B" transform="translate(193,384)"/>
<path d="M0 0 C0.66 0 1.32 0 2 0 C1.91433603 2.912575 1.42089045 4.56798024 -0.625 6.66796875 C-2.38391375 8.16091772 -4.16313019 9.60436262 -6 11 C-6.3125 8.6875 -6.3125 8.6875 -6 6 C-3.5625 4.375 -3.5625 4.375 -1 3 C-0.67 2.01 -0.34 1.02 0 0 Z " fill="#54C2CE" transform="translate(350,226)"/>
<path d="M0 0 C5.46875 4.39453125 5.46875 4.39453125 7 6 C7 6.99 7 7.98 7 9 C5.02 9 3.04 9 1 9 C0.67 6.03 0.34 3.06 0 0 Z " fill="#3991C1" transform="translate(476,518)"/>
<path d="M0 0 C5.46875 4.39453125 5.46875 4.39453125 7 6 C7 6.99 7 7.98 7 9 C5.02 9 3.04 9 1 9 C0.67 6.03 0.34 3.06 0 0 Z " fill="#3992C2" transform="translate(460,502)"/>
<path d="M0 0 C1.32 0.66 2.64 1.32 4 2 C2.8572081 3.16964602 1.71068285 4.33564556 0.5625 5.5 C-0.07558594 6.1496875 -0.71367187 6.799375 -1.37109375 7.46875 C-3 9 -3 9 -4 9 C-3.67 6.69 -3.34 4.38 -3 2 C-2.01 2.33 -1.02 2.66 0 3 C0 2.01 0 1.02 0 0 Z " fill="#58C3CF" transform="translate(428,148)"/>
<path d="M0 0 C1.32 0.66 2.64 1.32 4 2 C2.8572081 3.16964602 1.71068285 4.33564556 0.5625 5.5 C-0.07558594 6.1496875 -0.71367187 6.799375 -1.37109375 7.46875 C-3 9 -3 9 -4 9 C-3.67 6.69 -3.34 4.38 -3 2 C-2.01 2.33 -1.02 2.66 0 3 C0 2.01 0 1.02 0 0 Z " fill="#58C3CF" transform="translate(444,132)"/>
<path d="M0 0 C2.31 0.66 4.62 1.32 7 2 C5.35 3.65 3.7 5.3 2 7 C2 6.01 2 5.02 2 4 C0.68 3.67 -0.64 3.34 -2 3 C-1.34 2.01 -0.68 1.02 0 0 Z " fill="#42BECA" transform="translate(522,50)"/>
<path d="M0 0 C0.99 0.33 1.98 0.66 3 1 C0.69 3.31 -1.62 5.62 -4 8 C-4.99 7.67 -5.98 7.34 -7 7 C-6.3125 5.0625 -6.3125 5.0625 -5 3 C-2.375 2.25 -2.375 2.25 0 2 C0 1.34 0 0.68 0 0 Z " fill="#5BC4D1" transform="translate(285,293)"/>
<path d="M0 0 C0.99 0 1.98 0 3 0 C1.4169423 4.2742558 -1.50568404 6.26531794 -5 9 C-5 7.35 -5 5.7 -5 4 C-4.0409375 3.8453125 -4.0409375 3.8453125 -3.0625 3.6875 C-2.381875 3.460625 -1.70125 3.23375 -1 3 C-0.67 2.01 -0.34 1.02 0 0 Z " fill="#5BC3CF" transform="translate(461,116)"/>
<path d="M0 0 C1.32 0.66 2.64 1.32 4 2 C1.69 4.31 -0.62 6.62 -3 9 C-3.66 7.68 -4.32 6.36 -5 5 C-3.35 4.34 -1.7 3.68 0 3 C0 2.01 0 1.02 0 0 Z " fill="#5BC4D0" transform="translate(492,84)"/>
<path d="M0 0 C-1.65 1.98 -3.3 3.96 -5 6 C-5.33 5.01 -5.66 4.02 -6 3 C-6.66 3 -7.32 3 -8 3 C-8 2.01 -8 1.02 -8 0 C-4.71303767 -0.79953138 -3.28976808 -1.09658936 0 0 Z " fill="#47BDC8" transform="translate(536,45)"/>
<path d="M0 0 C1.17539996 0.92652701 2.34010577 1.86663387 3.5 2.8125 C4.1496875 3.33457031 4.799375 3.85664062 5.46875 4.39453125 C7 6 7 6 7 9 C5.35 8.67 3.7 8.34 2 8 C0 2.25 0 2.25 0 0 Z " fill="#3D94C1" transform="translate(524,566)"/>
<path d="M0 0 C1.14926266 0.95421808 2.29430541 1.91352045 3.4375 2.875 C4.07558594 3.40867187 4.71367187 3.94234375 5.37109375 4.4921875 C7 6 7 6 8 8 C5.125 7.6875 5.125 7.6875 2 7 C0 4 0 4 0 0 Z " fill="#3C92BE" transform="translate(484,526)"/>
<path d="M0 0 C1.65 0.99 3.3 1.98 5 3 C3.75 4.5625 3.75 4.5625 2 6 C-0.1875 5.6875 -0.1875 5.6875 -2 5 C-1.125 1.125 -1.125 1.125 0 0 Z " fill="#177095" transform="translate(268,311)"/>
<path d="M0 0 C0.66 0.33 1.32 0.66 2 1 C0.50902342 4.7952131 -1.75700849 6.61042731 -5 9 C-5 8.34 -5 7.68 -5 7 C-5.66 7 -6.32 7 -7 7 C-6 5 -6 5 -4 3 C-2.68 3 -1.36 3 0 3 C0 2.01 0 1.02 0 0 Z " fill="#58C3CE" transform="translate(372,205)"/>
<path d="M0 0 C0.33 0 0.66 0 1 0 C1.33 2.97 1.66 5.94 2 9 C1.01 9.495 1.01 9.495 0 10 C-0.46523063 11.89533342 -0.46523063 11.89533342 -0.625 14.0625 C-0.74875 15.361875 -0.8725 16.66125 -1 18 C-1.66 17.67 -2.32 17.34 -3 17 C-2.68985608 14.91631462 -2.3767948 12.83306332 -2.0625 10.75 C-1.88847656 9.58984375 -1.71445313 8.4296875 -1.53515625 7.234375 C-1.1272264 4.76893039 -0.66098697 2.40575438 0 0 Z " fill="#88D3DC" transform="translate(86,94)"/>
<path d="M0 0 C1.12894876 0.93274109 2.25300876 1.87140122 3.375 2.8125 C4.00148438 3.33457031 4.62796875 3.85664063 5.2734375 4.39453125 C7 6 7 6 9 9 C6 9 6 9 4.3125 7.625 C3 6 3 6 3 4 C1.68 3.67 0.36 3.34 -1 3 C-0.67 2.01 -0.34 1.02 0 0 Z " fill="#3D7F9E" transform="translate(296,338)"/>
<path d="M0 0 C-3.465 2.97 -3.465 2.97 -7 6 C-7 5.34 -7 4.68 -7 4 C-7.66 4 -8.32 4 -9 4 C-8.67 3.01 -8.34 2.02 -8 1 C-8 1.66 -8 2.32 -8 3 C-7.34 3 -6.68 3 -6 3 C-6 2.01 -6 1.02 -6 0 C-4 -1 -4 -1 0 0 Z " fill="#59C5CF" transform="translate(486,96)"/>
<path d="M0 0 C4.8 3.32307692 4.8 3.32307692 5.8125 6.75 C5.874375 7.4925 5.93625 8.235 6 9 C5.01 9 4.02 9 3 9 C2.67 7.35 2.34 5.7 2 4 C1.34 4 0.68 4 0 4 C0 2.68 0 1.36 0 0 Z " fill="#2B8BBC" transform="translate(468,510)"/>
<path d="M0 0 C1.17539996 0.92652701 2.34010577 1.86663387 3.5 2.8125 C4.1496875 3.33457031 4.799375 3.85664062 5.46875 4.39453125 C7 6 7 6 7 9 C2.97449681 7.6581656 2.11714364 5.5772427 0 2 C0 1.34 0 0.68 0 0 Z " fill="#4A99C2" transform="translate(492,534)"/>
<path d="M0 0 C0 0.66 0 1.32 0 2 C0.99 2.33 1.98 2.66 3 3 C-0.08809695 4.76462683 -1.23312136 5 -5 5 C-5 4.01 -5 3.02 -5 2 C-2 0 -2 0 0 0 Z " fill="#3ABCC8" transform="translate(317,259)"/>
<path d="M0 0 C0.8353125 0.37125 0.8353125 0.37125 1.6875 0.75 C-1.2825 3.225 -1.2825 3.225 -4.3125 5.75 C-5.3025 5.09 -6.2925 4.43 -7.3125 3.75 C-2.88173077 -0.31153846 -2.88173077 -0.31153846 0 0 Z " fill="#57C4D1" transform="translate(476.3125,103.25)"/>
<path d="M0 0 C0.66 0.33 1.32 0.66 2 1 C0.60667426 4.36720387 -0.9789286 5.9859524 -4 8 C-4 6.35 -4 4.7 -4 3 C-2.68 2.67 -1.36 2.34 0 2 C0 1.34 0 0.68 0 0 Z " fill="#5AC3CF" transform="translate(364,213)"/>
<path d="M0 0 C0.66 0.33 1.32 0.66 2 1 C0.60667426 4.36720387 -0.9789286 5.9859524 -4 8 C-4 6.35 -4 4.7 -4 3 C-2.68 2.67 -1.36 2.34 0 2 C0 1.34 0 0.68 0 0 Z " fill="#5AC3CF" transform="translate(380,197)"/>
<path d="M0 0 C1.65 0.33 3.3 0.66 5 1 C3.35 2.98 1.7 4.96 0 7 C-0.66 5.68 -1.32 4.36 -2 3 C-1.34 2.01 -0.68 1.02 0 0 Z " fill="#58C5D1" transform="translate(393,182)"/>
<path d="M0 0 C1.2065625 0.0309375 1.2065625 0.0309375 2.4375 0.0625 C0.7875 2.0425 -0.8625 4.0225 -2.5625 6.0625 C-3.8825 5.7325 -5.2025 5.4025 -6.5625 5.0625 C-6.2325 4.4025 -5.9025 3.7425 -5.5625 3.0625 C-4.5725 3.3925 -3.5825 3.7225 -2.5625 4.0625 C-2.8925 3.0725 -3.2225 2.0825 -3.5625 1.0625 C-2.5625 0.0625 -2.5625 0.0625 0 0 Z " fill="#59C4D1" transform="translate(411.5625,166.9375)"/>
<path d="M0 0 C1.32 0.33 2.64 0.66 4 1 C0.535 3.97 0.535 3.97 -3 7 C-3.33 5.68 -3.66 4.36 -4 3 C-2.68 3 -1.36 3 0 3 C0 2.01 0 1.02 0 0 Z " fill="#63C6D0" transform="translate(468,109)"/>
<path d="M0 0 C2.12508244 3.18762365 2.5020163 5.26512223 3 9 C1.35 7.35 -0.3 5.7 -2 4 C-1.34 2.68 -0.68 1.36 0 0 Z " fill="#6BC9D0" transform="translate(97,547)"/>
<path d="M0 0 C0.66 0.66 1.32 1.32 2 2 C-0.80804268 4.96404505 -3.18315774 7.44499019 -7 9 C-2.85714286 2.57142857 -2.85714286 2.57142857 0 0 Z " fill="#037097" transform="translate(157,422)"/>
<path d="M0 0 C0.66 0.33 1.32 0.66 2 1 C0.63016497 4.16115776 0.0109362 4.9927092 -3 7 C-3 6.34 -3 5.68 -3 5 C-3.66 4.67 -4.32 4.34 -5 4 C-4.360625 3.525625 -3.72125 3.05125 -3.0625 2.5625 C-1.11706694 1.16261274 -1.11706694 1.16261274 0 0 Z " fill="#57C2CD" transform="translate(292,285)"/>
<path d="M0 0 C2.0625 0.4375 2.0625 0.4375 4 1 C2.35 2.65 0.7 4.3 -1 6 C-1.042721 4.33388095 -1.04063832 2.66617115 -1 1 C-0.67 0.67 -0.34 0.34 0 0 Z " fill="#59C4D1" transform="translate(313,263)"/>
<path d="M0 0 C1.65 0.33 3.3 0.66 5 1 C5 1.99 5 2.98 5 4 C4.34 3.67 3.68 3.34 3 3 C0.90178785 3.39938767 0.90178785 3.39938767 -1 4 C-0.67 2.68 -0.34 1.36 0 0 Z " fill="#278ABF" transform="translate(398,443)"/>
<path d="M0 0 C-1.65 1.32 -3.3 2.64 -5 4 C-5.33 2.68 -5.66 1.36 -6 0 C-3.50907189 -1.24546405 -2.58919267 -0.7767578 0 0 Z " fill="#5DC6D0" transform="translate(438,144)"/>
<path d="" fill="#FEFEFF" transform="translate(0,0)"/>
<path d="" fill="#FEFEFF" transform="translate(0,0)"/>
</svg>
